<svg width="409" height="574" xmlns="http://www.w3.org/2000/svg" xmlns:xlink="http://www.w3.org/1999/xlink" xml:space="preserve" overflow="hidden"><defs><clipPath id="clip0"><rect x="1966" y="914" width="409" height="574"/></clipPath></defs><g clip-path="url(#clip0)" transform="translate(-1966 -914)"><path d="M2035 988C2146.29 1037.13 2260.83 1139.02 2312 1383" stroke="#007A83" stroke-width="2.0625" stroke-miterlimit="1" fill="none" fill-rule="evenodd"/><path d="M2334 987 2035 987 2035 1436" stroke="#181717" stroke-width="2.29167" stroke-miterlimit="1" fill="none" fill-rule="evenodd"/><path d="M2027 1429 2035.5 1432.58 2044 1429 2035.5 1449 2027 1429Z" fill="#181717" fill-rule="evenodd"/><path d="M2134 987 2035 987" stroke="#EB5B80" stroke-width="2.29167" stroke-miterlimit="1" fill="none" fill-rule="evenodd"/><path d="M2127 979 2147 987.502 2127 996 2130.59 987.502 2127 979Z" fill="#EB5B80" fill-rule="evenodd"/><path d="M2188 1102 2291 1241" stroke="#EB5B80" stroke-width="2.29167" stroke-miterlimit="1" fill="none" fill-rule="evenodd"/><path d="M2293.82 1230 2299 1252 2280 1240.45 2289.08 1238.23 2293.82 1230Z" fill="#EB5B80" fill-rule="evenodd"/><path d="M2188.5 1252.5 2299.5 1252.5 2299.5 1102.5" stroke="#181717" stroke-width="1.375" stroke-miterlimit="1" stroke-dasharray="5.5 4.125" fill="none" fill-rule="evenodd"/><text fill="#181717" font-family="Book Antiqua,Book Antiqua_MSFontService,sans-serif" font-style="italic" font-weight="400" font-size="41" transform="matrix(1 0 0 1 2149.76 1269)">v<tspan font-family="Times New Roman,Times New Roman_MSFontService,sans-serif" font-size="28" x="20.625" y="9">y</tspan><tspan font-size="41" x="163.409" y="0">v</tspan><tspan font-family="Times New Roman,Times New Roman_MSFontService,sans-serif" font-size="41" x="76.4087" y="-129">θ</tspan></text><path d="M2287 1101 2188 1101 2188 1237" stroke="#EB5B80" stroke-width="2.29167" stroke-miterlimit="1" fill="none" fill-rule="evenodd"/><path d="M2179 1231 2187.5 1234.59 2196 1231 2187.5 1251 2179 1231Z" fill="#EB5B80" fill-rule="evenodd"/><path d="M2187.5 1095C2191.09 1095 2194 1097.91 2194 1101.5 2194 1105.09 2191.09 1108 2187.5 1108 2183.91 1108 2181 1105.09 2181 1101.5 2181 1097.91 2183.91 1095 2187.5 1095Z" fill="#181717" fill-rule="evenodd"/><path d="M2281 1093 2302 1101.5 2281 1110 2284.76 1101.5 2281 1093Z" fill="#EB5B80" fill-rule="evenodd"/><text fill="#181717" font-family="Book Antiqua,Book Antiqua_MSFontService,sans-serif" font-style="italic" font-weight="400" font-size="41" transform="matrix(1 0 0 1 2313.29 1112)">v<tspan font-family="Times New Roman,Times New Roman_MSFontService,sans-serif" font-size="28" x="20.625" y="9">x</tspan><tspan font-size="41" x="-194.387" y="-147">v</tspan><tspan font-family="Times New Roman,Times New Roman_MSFontService,sans-serif" font-style="normal" font-size="28" x="-173.762" y="-138">0</tspan><tspan font-family="Times New Roman,Times New Roman_MSFontService,sans-serif" font-size="41" x="-321.369" y="-110">O</tspan><tspan font-family="Times New Roman,Times New Roman_MSFontService,sans-serif" font-size="41" x="17.512" y="-145">x</tspan></text><path d="M2328 995 2331.58 986.498 2328 978 2348 986.498 2328 995Z" fill="#181717" fill-rule="evenodd"/><text fill="#181717" font-family="Times New Roman,Times New Roman_MSFontService,sans-serif" font-style="italic" font-weight="400" font-size="41" transform="matrix(1 0 0 1 2002.27 1453)">y</text><path d="M2216.03 1101.63C2220.57 1110.91 2216.71 1122.12 2207.41 1126.66" stroke="#EB5B80" stroke-width="2.29167" stroke-miterlimit="8" fill="none" fill-rule="evenodd"/></g></svg>