<svg width="518" height="561" xmlns="http://www.w3.org/2000/svg" xmlns:xlink="http://www.w3.org/1999/xlink" xml:space="preserve" overflow="hidden"><defs><clipPath id="clip0"><rect x="1936" y="930" width="518" height="561"/></clipPath></defs><g clip-path="url(#clip0)" transform="translate(-1936 -930)"><path d="M2366 1406C2326.33 1235.54 2263.78 1031 2192 1031" stroke="#007A83" stroke-width="2.29167" stroke-miterlimit="1" fill="none" fill-rule="evenodd"/><path d="M2193 1031C2120.95 1031.37 2061.75 1236.03 2025 1406" stroke="#007A83" stroke-width="2.29167" stroke-miterlimit="1" fill="none" fill-rule="evenodd"/><path d="M2023 1407 2072 1137" stroke="#EB5B80" stroke-width="2.29167" stroke-miterlimit="1" fill="none" fill-rule="evenodd"/><path d="M2420 1407 2023 1407 2023 980" stroke="#181717" stroke-width="2.29167" stroke-miterlimit="1" fill="none" fill-rule="evenodd"/><text fill="#181717" font-family="Times New Roman,Times New Roman_MSFontService,sans-serif" font-style="italic" font-weight="400" font-size="41" transform="matrix(1 0 0 1 1981.05 1423)">O<tspan font-size="41" x="10.7502" y="-440">y</tspan></text><path d="M2023.5 1407.5 2077.5 1407.5 2077.5 1122.5 2023.5 1122.5Z" stroke="#181717" stroke-width="1.375" stroke-miterlimit="1" stroke-dasharray="5.5 4.125" fill="none" fill-rule="evenodd"/><text fill="#181717" font-family="Times New Roman,Times New Roman_MSFontService,sans-serif" font-style="italic" font-weight="400" font-size="41" transform="matrix(1 0 0 1 2042.35 1382)">θ</text><path d="M2029 1383C2029 1383 2037.91 1386.42 2043.46 1393.03 2049 1399.62 2048.62 1407 2048.62 1407" stroke="#EB5B80" stroke-width="2.29167" stroke-miterlimit="1" fill="none" fill-rule="evenodd"/><path d="M2023 1136 2023 1407 2063 1407" stroke="#EB5B80" stroke-width="2.29167" stroke-miterlimit="1" fill="none" fill-rule="evenodd"/><path d="M2023.5 1122 2032 1142 2023.5 1138.41 2015 1142 2023.5 1122Z" fill="#EB5B80" fill-rule="evenodd"/><path d="M2057 1398 2077 1406.5 2057 1415 2060.59 1406.5 2057 1398Z" fill="#EB5B80" fill-rule="evenodd"/><text fill="#181717" font-family="Book Antiqua,Book Antiqua_MSFontService,sans-serif" font-style="italic" font-weight="400" font-size="41" transform="matrix(1 0 0 1 2063.81 1098)">v<tspan font-family="Times New Roman,Times New Roman_MSFontService,sans-serif" font-style="normal" font-size="28" x="20.625" y="9">0</tspan></text><path d="M2023.5 959 2034 987 2023.5 979.996 2013 987 2023.5 959Z" fill="#181717" fill-rule="evenodd"/><path d="M2438 1406.5 2411 1417 2417.75 1406.5 2411 1396 2438 1406.5Z" fill="#181717" fill-rule="evenodd"/><text fill="#181717" font-family="Book Antiqua,Book Antiqua_MSFontService,sans-serif" font-style="italic" font-weight="400" font-size="41" transform="matrix(1 0 0 1 1961.82 1134)">v<tspan font-family="Times New Roman,Times New Roman_MSFontService,sans-serif" font-style="normal" font-size="28" x="20.625" y="9">0</tspan><tspan font-family="Times New Roman,Times New Roman_MSFontService,sans-serif" font-size="28" x="34.375" y="9">y</tspan><tspan font-size="41" x="90.9788" y="319">v</tspan><tspan font-family="Times New Roman,Times New Roman_MSFontService,sans-serif" font-style="normal" font-size="28" x="111.604" y="328">0</tspan><tspan font-family="Times New Roman,Times New Roman_MSFontService,sans-serif" font-size="28" x="125.354" y="328">x</tspan></text><path d="M2075.44 1121.55 2079.43 1142.98 2071.93 1137.66 2062.89 1139.37 2075.44 1121.55Z" fill="#EB5B80" fill-rule="evenodd"/><text fill="#181717" font-family="Times New Roman,Times New Roman_MSFontService,sans-serif" font-style="italic" font-weight="400" font-size="41" transform="matrix(1 0 0 1 2410.47 1450)">x</text></g></svg>